<?xml version="1.0" encoding="UTF-8"?>
<svg width="23px" height="25px" viewBox="0 0 23 25" version="1.1" xmlns="http://www.w3.org/2000/svg" xmlns:xlink="http://www.w3.org/1999/xlink">
    <!-- Generator: Sketch 42 (36781) - http://www.bohemiancoding.com/sketch -->
    <title>shield</title>
    <desc>Created with Sketch.</desc>
    <defs>
        <linearGradient x1="50%" y1="0.466358418%" x2="50%" y2="99.6771365%" id="linearGradient-1">
            <stop stop-color="#FFDB4A" offset="0%"></stop>
            <stop stop-color="#FFBB01" offset="100%"></stop>
        </linearGradient>
    </defs>
    <g id="Page-1" stroke="none" stroke-width="1" fill="none" fill-rule="evenodd">
        <g id="Outline" transform="translate(-451.000000, -300.000000)" fill="url(#linearGradient-1)">
            <g id="shield" transform="translate(451.000000, 299.000000)">
                <path d="M11.243,1.071 C11.194,1.101 6.283,4 0.5,4 L0.5,4 C0.224,4 0,4.224 0,4.5 L0,4.5 L0,10.5 C0,18.849 9.316,26 11.5,26 L11.5,26 C13.684,26 23,18.849 23,10.5 L23,10.5 L23,4.5 C23,4.224 22.777,4 22.5,4 L22.5,4 C16.717,4 11.806,1.101 11.757,1.071 L11.757,1.071 C11.678,1.023 11.589,0.999 11.5,0.999 L11.5,0.999 C11.411,0.999 11.322,1.023 11.243,1.071 L11.243,1.071 Z M1,10.5 L1,4.993 C6.147,4.857 10.419,2.676 11.5,2.076 L11.5,2.076 C12.581,2.676 16.853,4.857 22,4.993 L22,4.993 L22,10.5 C22,18.443 13.078,25 11.5,25 L11.5,25 C9.922,25 1,18.443 1,10.5 L1,10.5 Z M11.032,7.324 L9.653,11 L6.5,11 C6.281,11 6.089,11.142 6.023,11.35 L6.023,11.35 C5.957,11.558 6.035,11.785 6.213,11.91 L6.213,11.91 L8.829,13.741 L7.69,17.349 C7.624,17.556 7.7,17.782 7.877,17.908 L7.877,17.908 C8.055,18.034 8.293,18.031 8.467,17.9 L8.467,17.9 L11.5,15.625 L14.534,17.9 C14.622,17.967 14.728,18 14.833,18 L14.833,18 C14.935,18 15.036,17.969 15.122,17.908 L15.122,17.908 C15.299,17.782 15.375,17.556 15.31,17.349 L15.31,17.349 L14.171,13.741 L16.786,11.91 C16.965,11.785 17.043,11.558 16.977,11.35 L16.977,11.35 C16.911,11.142 16.718,11 16.5,11 L16.5,11 L13.346,11 L11.969,7.324 C11.895,7.129 11.698,7.031 11.5,7.031 L11.5,7.031 C11.303,7.031 11.105,7.129 11.032,7.324 L11.032,7.324 Z M9.893,13.693 C9.959,13.485 9.882,13.258 9.703,13.133 L9.703,13.133 L8.086,12 L10,12 C10.208,12 10.395,11.871 10.468,11.676 L10.468,11.676 L11.5,8.923 L12.532,11.676 C12.605,11.871 12.791,12 13,12 L13,12 L14.914,12 L13.297,13.133 C13.118,13.258 13.041,13.485 13.107,13.693 L13.107,13.693 L13.887,16.166 L11.799,14.6 C11.711,14.533 11.606,14.5 11.5,14.5 L11.5,14.5 C11.394,14.5 11.289,14.533 11.2,14.6 L11.2,14.6 L9.112,16.166 L9.893,13.693 Z" id="Fill-42"></path>
            </g>
        </g>
    </g>
</svg>